<svg id="Calque_1" data-name="Calque 1" xmlns="http://www.w3.org/2000/svg" viewBox="0 0 707.5 215.84"><defs><style>.cls-1{fill:#fff;}.cls-2{fill:#c5161c;}.cls-3{fill:#333;}</style></defs><title>Logo ASL FINAL (1)</title><path class="cls-1" d="M484.28,36.4c-27.3-5.4-70.58-14-85-15.76.25-.24-92.81-12.61-116.16-9.54-.49.13-53.38-2.23-122.1,13.51C160.8,23.5,92.24,36.4,65.55,59.25c-.11-.92-30.7,18.87-39.73,44,.65.51-9.44,25.34,21,62.75,0-.09,5.28,4.15,13.49,10.55,3-1,5.49-2.84,6.34-5.93a1.85,1.85,0,0,0,0-.23C60,161.58,54.83,151.67,53.6,141c.29-.83-5.16-24.63,18.05-47.13.22-1.16,25-24.54,71.14-38.71.5.7,31-11.34,92.3-19.75,0-.86,52.26-8.9,149-4.79.23.79,52.51.33,103.53,8.25C486.54,38,485.38,37.25,484.28,36.4Z"/><path class="cls-2" d="M512.81,43l0,0-.1,0h0l-.45-.15,0,0-.12,0c-7.92-1.72-87.2-22.79-108.79-26.37.28-.22-97.66-17.29-122.5-15.4C280.26,1,224.38-4,151,8.25,150.72,7.14,77.59,16.55,48.31,38c-.07-.92-33.33,17.29-44,42,.67.53-16.64,27.3,13.88,66.21A383.9,383.9,0,0,0,52,176.67a3.76,3.76,0,0,0,2.41.82C59,177.41,64.13,176,66.11,172c-15-13.3-32.51-32-34.11-53,.35-.81-4.36-24.87,21.22-46.17.29-1.14,27.62-23.24,77-35.07.5.72,33.31-9.76,98.58-15.06,0-.86,55.7-6.25,158,2.75.24.95,71.74,6.57,131.92,22.42C518.69,47.93,525.92,48.71,512.81,43Z"/><polygon class="cls-3" points="71.34 182.44 71.34 182.44 71.34 182.44 71.34 182.44"/><path class="cls-1" d="M326,114.16H313.1l-.93-5.84H303.8l-1,5.84H289.93l11.06-46H316.2ZM310.71,98.63l-.8-5.37a5,5,0,0,1-.12-.8q-.06-.66-.63-5.19c0-.34-.09-.8-.15-1.39s-.14-1.32-.24-2.22l-.38-4.35c0,.42-.1.89-.17,1.4s-.14,1.09-.22,1.7c-.14,1.23-.24,2.09-.3,2.57s-.1.76-.12.86l-.86,5.58-1.26,7.21Z"/><path class="cls-1" d="M348.34,68.13h12.43v32a14.29,14.29,0,0,1-1.28,6.5,12.78,12.78,0,0,1-4.18,4.72,16,16,0,0,1-9.57,2.81,17.86,17.86,0,0,1-10.7-3.1q-5.49-4-5.49-12.66V68.13H342V97.65a8.88,8.88,0,0,0,.73,4.24,2.6,2.6,0,0,0,2.46,1.24,2.63,2.63,0,0,0,2.47-1.15,9.47,9.47,0,0,0,.69-4.3Z"/><path class="cls-1" d="M383.28,114.16H370.85v-35H364v-11H390.4v11h-7.12Z"/><path class="cls-1" d="M427.76,91.31q0,10.16-4.8,16.52a14.86,14.86,0,0,1-12.43,6.33,15.91,15.91,0,0,1-11.66-4.86q-6.11-6.17-6.11-18.48,0-11.8,6.38-18a15.54,15.54,0,0,1,11.24-4.64,15,15,0,0,1,12.67,6.28Q427.76,80.68,427.76,91.31Zm-12.91.1q0-12.24-4.41-12.25c-1.47,0-2.65,1.07-3.52,3.22a23.28,23.28,0,0,0-1.28,8.77,25.44,25.44,0,0,0,1.21,8.84q1.2,3.14,3.35,3.14t3.4-3.1A23.81,23.81,0,0,0,414.85,91.41Z"/><path class="cls-1" d="M450.45,112.29V98.12q3.66,5,7.93,5a4,4,0,0,0,2.62-.82,2.52,2.52,0,0,0,1-2c0-1.19-.74-2.35-2.21-3.48l-2-1.53a28,28,0,0,1-3.46-2.92,14.91,14.91,0,0,1-2.32-3,11.81,11.81,0,0,1-1.31-3.18,13.82,13.82,0,0,1-.42-3.45,16.25,16.25,0,0,1,1.49-6.5,16.5,16.5,0,0,1,1.73-2.89A12.36,12.36,0,0,1,455.75,71a13,13,0,0,1,8.5-2.88,19.61,19.61,0,0,1,8.95,2.29V84.23a13.21,13.21,0,0,0-3.46-3.71,6.63,6.63,0,0,0-3.82-1.36,3.43,3.43,0,0,0-2.35.81,2.32,2.32,0,0,0-1,1.86q0,1.78,2.54,3.54l2,1.41a18.72,18.72,0,0,1,5.64,5.6,12.83,12.83,0,0,1,1.73,6.72,14.84,14.84,0,0,1-4.15,10.81,14,14,0,0,1-10.49,4.25A26.86,26.86,0,0,1,450.45,112.29Z"/><path class="cls-1" d="M491.77,114.16H479.34v-46h12q9,0,13.36,3.67,5.13,4.32,5.13,12,0,8.39-5.46,12.49-3.72,2.78-10.7,2.78h-1.94Zm0-24.77.57,0a4.75,4.75,0,0,0,3.6-1.39,5.21,5.21,0,0,0,1.35-3.8A5.65,5.65,0,0,0,496,80.35a4.21,4.21,0,0,0-3.34-1.52h-.86Z"/><path class="cls-1" d="M548.06,91.31q0,10.16-4.8,16.52a14.87,14.87,0,0,1-12.43,6.33,15.89,15.89,0,0,1-11.66-4.86q-6.12-6.17-6.11-18.48,0-11.8,6.38-18a15.53,15.53,0,0,1,11.24-4.64,15,15,0,0,1,12.67,6.28Q548.06,80.68,548.06,91.31Zm-12.91.1q0-12.24-4.41-12.25-2.22,0-3.52,3.22c-.86,2-1.28,4.91-1.28,8.77a25.71,25.71,0,0,0,1.2,8.84q1.22,3.14,3.36,3.14t3.4-3.1A23.81,23.81,0,0,0,535.15,91.41Z"/><path class="cls-1" d="M586.1,114.16H572.65l-6.14-16.39a11.39,11.39,0,0,0-.31-1.11c-.15-.45-.33-1-.55-1.64l.09,3v16.1H553.36v-46h12.73q8.42,0,12.59,3.31,5.3,4.23,5.3,12,0,8.35-7.12,11.54ZM565.8,88.79h.83a4.55,4.55,0,0,0,3.58-1.64A6.12,6.12,0,0,0,571.64,83q0-5.16-5.4-5.16h-.44Z"/><path class="cls-1" d="M606.7,114.16H594.27v-35h-6.86v-11h26.42v11H606.7Z"/><path class="cls-1" d="M635.41,114.16v-46h10.73q9.23,0,14.34,5,6.75,6.47,6.74,18.1,0,11.44-5.69,17.68-4.86,5.3-14.49,5.3Zm12.43-11q6.69-.33,6.68-11.51a18.57,18.57,0,0,0-1.7-8.7q-1.7-3.23-4.59-3.22h-.39Z"/><path class="cls-1" d="M691.31,68.13h12.43v32a14.16,14.16,0,0,1-1.28,6.5,12.66,12.66,0,0,1-4.17,4.72,16,16,0,0,1-9.57,2.81,17.89,17.89,0,0,1-10.71-3.1q-5.47-4-5.48-12.66V68.13H685V97.65a9,9,0,0,0,.73,4.24,3.15,3.15,0,0,0,4.94.09,9.64,9.64,0,0,0,.68-4.3Z"/><path class="cls-2" d="M324.71,193.67H294.1V128.93h17.49v49.23h13.12Z"/><path class="cls-2" d="M378.84,193.67H360.77l-1.3-8.22H347.69l-1.43,8.22H328.19l15.55-64.74h21.39Zm-21.43-21.84-1.13-7.55a8,8,0,0,1-.17-1.13c-.05-.62-.35-3.05-.88-7.3L355,153.9q-.12-1.23-.33-3.12l-.55-6.12c-.05.58-.13,1.24-.23,2s-.2,1.52-.31,2.39q-.3,2.59-.42,3.6c-.09.67-.14,1.08-.17,1.22l-1.22,7.84L350,171.83Z"/><path class="cls-2" d="M430,193.67H411l-8.64-23.06a15,15,0,0,0-.44-1.55q-.31-1-.78-2.31l.13,4.28v22.64h-17.4V128.93h17.9q11.83,0,17.7,4.66,7.46,6,7.46,16.94,0,11.73-10,16.22ZM401.39,158h1.18a6.4,6.4,0,0,0,5-2.31,8.59,8.59,0,0,0,2-5.87q0-7.25-7.59-7.25h-.63Z"/><path class="cls-2" d="M482.36,193.67H464.29l-1.3-8.22H451.2l-1.42,8.22H431.71l15.55-64.74h21.39Zm-21.43-21.84-1.13-7.55a8,8,0,0,1-.17-1.13c-.05-.62-.35-3.05-.88-7.3l-.21-1.95q-.12-1.23-.33-3.12l-.55-6.12c-.06.58-.13,1.24-.23,2s-.2,1.52-.31,2.39q-.3,2.59-.42,3.6c-.09.67-.14,1.08-.17,1.22l-1.22,7.84-1.76,10.15Z"/><path class="cls-2" d="M509.94,156.23h24.41v2.6q0,18.15-5.58,26.13-6.07,8.72-18,8.71-11.7,0-18.36-8.5t-6.63-23.56q0-15.2,6.67-23.93t18.24-8.75q15.34,0,22.26,15.94L516,151.07a9.81,9.81,0,0,0-1.74-4.84,4.13,4.13,0,0,0-3.41-1.78q-7.22,0-7.21,18.62,0,7.92,1.59,11.5t5.07,3.59a5.33,5.33,0,0,0,2.52-.6,5.51,5.51,0,0,0,1.91-1.66,8.46,8.46,0,0,0,1.21-2.62,12.49,12.49,0,0,0,.44-3.42h-6.46Z"/><path class="cls-2" d="M541.81,193.67V128.93H558.5l8.76,22.73q.71,2,1.61,4.61c.6,1.73,1.27,3.73,2,6l1.81,5.7c-.65-5.62-1.13-10.43-1.47-14.42s-.5-7.36-.5-10.07V128.93h16.85v64.74H570.7l-9.34-23.81q-1.47-3.83-2.64-7.15c-.79-2.23-1.48-4.34-2.07-6.36q1.05,6.84,1.53,11.91c.32,3.38.48,6.35.48,8.89v16.52Z"/><path class="cls-2" d="M643.48,193.67H625.41l-1.3-8.22H612.33l-1.42,8.22H592.83l15.56-64.74h21.38Zm-21.42-21.84-1.13-7.55a6.52,6.52,0,0,1-.17-1.13q-.09-.93-.88-7.3-.09-.71-.21-1.95c-.09-.82-.2-1.86-.34-3.12l-.54-6.12c-.06.58-.14,1.24-.23,2s-.21,1.52-.32,2.39q-.29,2.59-.42,3.6c-.08.67-.14,1.08-.16,1.22l-1.22,7.84-1.76,10.15Z"/><path class="cls-2" d="M666,193.67H648.56V128.93H666Z"/><path class="cls-2" d="M673.71,191V171.11q5.16,7,11.15,7a5.68,5.68,0,0,0,3.69-1.16,3.56,3.56,0,0,0,1.43-2.89q0-2.51-3.1-4.89L684,167.08a38.38,38.38,0,0,1-4.87-4.11,21.11,21.11,0,0,1-3.27-4.21,17.23,17.23,0,0,1-1.84-4.47,19.59,19.59,0,0,1-.59-4.85,22.68,22.68,0,0,1,2.1-9.14,23.06,23.06,0,0,1,2.43-4.07,17.48,17.48,0,0,1,3.18-3.25,18.28,18.28,0,0,1,12-4,27.63,27.63,0,0,1,12.58,3.22v19.42a18.58,18.58,0,0,0-4.86-5.22,9.37,9.37,0,0,0-5.37-1.9,4.84,4.84,0,0,0-3.31,1.13,3.27,3.27,0,0,0-1.34,2.63c0,1.67,1.19,3.32,3.56,5l2.77,2a26.4,26.4,0,0,1,7.92,7.88,18,18,0,0,1,2.43,9.45q0,9.22-5.82,15.2a19.74,19.74,0,0,1-14.76,6A37.77,37.77,0,0,1,673.71,191Z"/><path class="cls-1" d="M139.44,146.17c3.56-.63,13.87-2.47,20.63-3.82,7.88-1.58,34.3-8.83,55.7-15.4a1.75,1.75,0,0,0,.6-3c-5.52-4.55-18.82-15.38-26.78-19.12a1.57,1.57,0,0,0-.67-.16c-1.23,0-5.64.07-15.76,2.7a1.74,1.74,0,0,0-1.33,1.68c0,.67-.28,1.44-1.57,1.85-2.6.81-21.94,5.92-21.94,5.92a3.25,3.25,0,0,1-3.26-1.11c-.4-.56-.74-1-1-1.37a1.74,1.74,0,0,0-2-.6L126,119.08a1.75,1.75,0,0,0-1,2.48l12.58,23.7A1.74,1.74,0,0,0,139.44,146.17Z"/><rect class="cls-1" x="146.37" y="107.48" width="24.62" height="4.44" rx="1.85" ry="1.85" transform="matrix(0.96, -0.28, 0.28, 0.96, -24.5, 49.21)"/><path class="cls-1" d="M125.86,147.68c.14.1.19.17.18.23l5.61.65a.72.72,0,0,0,.76-1,182,182,0,0,0-11.74-25.15c.1,0-2.53-3.87-12.1-3.87-.07,0-13-.7-17.56,2.47s-8.6,17.59-8.6,17.59-2.65,4.29,7.82,5.3c6.55.63,21.61,2.34,31.94,3.53,0-.27-.17-1-1.72-1.19-1.89-.2-3.41-.15-4-2.21a3.51,3.51,0,0,1,1.09-3.44s.83-.83,4-.32,3.65,1.29,3.65,1.29.82.6.15,2a5.7,5.7,0,0,0-.46,2.9S124.71,146.84,125.86,147.68Z"/><path class="cls-1" d="M226.39,153.64c-4.47,3.08-3.83,3.4-14.26,3.61s-24.37,4.47-24.37,4.47,2.13,4.26,11.81,10.11c0,.11,2,1.81,21.92-3,0,.11,13.52-4.25,20.44-7.76.1,0,4.36-7-.54-13.41C241.39,147.68,230.86,150.55,226.39,153.64Z"/><path class="cls-1" d="M187.76,173.11a23.49,23.49,0,0,0,4.46-2.29l.09-.06c.37-.26.77-.53,1.19-.84,0,0-5-4.28-7-7.37a1.62,1.62,0,0,0-1.33-.73c-4.64,0-25.77-.19-29.74.76.09.38.53,3.53,5.21,9.75a5.36,5.36,0,0,0,4.29,2.15,163.4,163.4,0,0,0,22.85-1.37Z"/><path class="cls-1" d="M248,155.71c5.44-.22,4.9-7.47,4.76-8.54a1.74,1.74,0,0,0,0-.22c-1.3-4.63-5.12-7.94-5.17-7.77a21.71,21.71,0,0,1-4.4,6.87,1.54,1.54,0,0,0-.09,1.93c1.25,1.79,1.64,4.68,1.73,6.37a1.51,1.51,0,0,0,1.46,1.44A7,7,0,0,0,248,155.71Z"/><path class="cls-1" d="M167.48,103.76c-3.5-.35-16-1-33.46,4.39.19,0,10.62.92,11.57,4.4.06-.06-.42-2.26,3.13-3.14,3-.75,15.26-4.24,18.79-5.25A.21.21,0,0,0,167.48,103.76Z"/><path class="cls-1" d="M219,189.14c.2,0,27.59-6.7,34.89-12.89.2-.1,7.09-5.7,5-11.7.1.2-2.39-1.1-4.79,2.2l-6.53,4.4s-1.07.76-2.72-6.5a1.79,1.79,0,0,0-2.42-1.27,214.7,214.7,0,0,1-41.31,12c.1.1.79,8.39.79,8.59s-14.75,3.6-27.42,4.3c.13-.1-4.56.6-7.76,8.3l33.19-2.2A92.23,92.23,0,0,0,219,189.14Z"/><path class="cls-1" d="M134.58,105.37l4.16-.64c18.31-2.86,37.25-5.81,54.46.93,4.31,3.32,8.69,6.53,12.93,9.62s8.65,6.32,13,9.63c2.06,1.71,4.63,2.4,7.11,3.06s4.92,1.31,6.86,2.93l.12.1.15,0c11.85-2.09,23.12,3.81,26.23,13.75,2.34,6.55,2.69,13.17,3,19.58.14,2.62.28,5.32.56,7.95l.66-.07c-.28-2.61-.42-5.31-.56-7.92-.35-6.45-.7-13.12-3.07-19.75-3.19-10.2-14.7-16.29-26.82-14.22-2-1.64-4.56-2.31-7-3s-4.92-1.31-6.87-2.94c-4.33-3.32-8.72-6.54-13-9.64s-8.65-6.32-13-9.64l-.08,0c-17.39-6.83-36.43-3.86-54.84-1l-4.16.65Z"/><path class="cls-1" d="M134.53,103.53c2-.82-2.08,0-2.08,0s-44.08,3.4-56.73,12c-.2.4,1.64,8,1.64,8S110.63,109.36,134.53,103.53Z"/><path class="cls-1" d="M268,190.5c-1.27-5.08-10.36-6-13.78-6.37l-.22,0c7.85-3.86,7.55-9.4,7.53-9.64l0-.7-8.74,8.31a.4.4,0,0,1-.15.1c-10.81,5.07-35.71,13-93,22.22a.57.57,0,0,1-.67-.52c-.31-4.72-2.7-22.17-9.81-32.55-5.09-7.43-11.64-10.26-19.48-8.41l-.26.06-.25,19.51a3,3,0,0,0,.2,1.07l5,12.91a.57.57,0,0,1-.63.77l-43.17-7.72a.56.56,0,0,1-.46-.45,109.84,109.84,0,0,0-3-12.06c-2.81-9.11-6.18-15.45-10-18.86-1.82-1.61-3.35-2.11-4.54-1.48-4.06,2.14-2.22,17.22-2.14,17.88a4.11,4.11,0,0,1-1.21,3.31c-1.69,1.82-5.9,3.77-16.33,2.69-3.39-.35-5.55.12-6.4,1.41-.71,1.06-.52,2.6.56,4.56,3.79,6.93,18.56,18.37,23.69,18.37h0a9.53,9.53,0,0,0,1.49-.15h.16a29.14,29.14,0,0,0,8.45-.35H81c1,0,14.13-.1,36.82,6.72a118.74,118.74,0,0,0,33.62,4.75,94.22,94.22,0,0,0,11.54-.61H163a329,329,0,0,0,83.19-15.44c3.66-1,21.78-6.12,21.78-9.2Zm-114.83,7.37c-1.23,3.48-3.34,5.69-5.95,6.23-5.45,1.11-11.4-5.42-13.29-14.58s1-17.51,6.47-18.63c2.6-.53,5.42.66,7.92,3.38a25.7,25.7,0,0,1,4.85,23.6ZM84.8,188.28c-.47,2.53-1.47,4.14-2.75,4.4s-2.84-.81-4.27-3a26,26,0,0,1-3.46-8.94c-1.44-7-.34-13.43,2.41-14a1.72,1.72,0,0,1,.39,0c2.69,0,6,5.26,7.33,11.94A25.92,25.92,0,0,1,84.8,188.28Z"/></svg>
